{"title":"Hooper.1978.1080p.BluRay.x264-PSYCHD[rarbg]","uid":11953959,"size":8592128583,"categoryP":"video","categoryS":"hd___movies","magnet":"?xt=urn:btih:c1e74f0572e75ab6f29490c12b22b4ec32e78b44&amp;dn=Hooper.1978.1080p.BluRay.x264-PSYCHD%5Brarbg%5D&amp;tr=udp%3A%2F%2Ftracker.openbittorrent.com%3A80&amp;tr=udp%3A%2F%2Fopen.demonii.com%3A1337&amp;tr=udp%3A%2F%2Ftracker.coppersurfer.tk%3A6969&amp;tr=udp%3A%2F%2Fexodus.desync.com%3A6969","seeders":0,"leechers":0,"uploader":"vickey1992","files":5,"time":1432304958,"description":"Hooper.1978.720p.BluRay.x264-PSYCHD\n\nDate..............: 05/2015\n\nIMDB..............: http://www.imdb.com/title/tt0077696/\n\nRatings...........: 6.2/10   3,716 votes\n\nRuntime...........: 01:39:29\n\nVideo.............: 1920x1080 / 23.976fps\n\nAudio.............: DTS 768\n\n&quot;Your worst inhibitions tend to psych you out in the end.&quot;\n\n\nVideo\nID                                       : 1\nFormat                                   : AVC\nFormat/Info                              : Advanced Video Codec\nFormat profile                           : &lt;a class=&quot;__cf_email__&quot; href=&quot;/cdn-cgi/l/email-protection&quot; data-cfemail=&quot;eda5848a85ada1d9c3dc&quot;&gt;[email&amp;#160;protected]&lt;/a&gt;&lt;script data-cfhash='f9e31' type=&quot;text/javascript&quot;&gt;\n/* &lt;![CDATA[ */!function(){try{var t=&quot;currentScript&quot;in document?document.currentScript:function(){for(var t=document.getElementsByTagName(&quot;script&quot;),e=t.length;e--;)if(t[e].getAttribute(&quot;data-cfhash&quot;))return t[e]}();if(t&amp;&amp;t.previousSibling){var e,r,n,i,c=t.previousSibling,a=c.getAttribute(&quot;data-cfemail&quot;);if(a){for(e=&quot;&quot;,r=parseInt(a.substr(0,2),16),n=2;a.length-n;n+=2)i=parseInt(a.substr(n,2),16)^r,e+=String.fromCharCode(i);e=document.createTextNode(e),c.parentNode.replaceChild(e,c)}t.parentNode.removeChild(t);}}catch(u){}}()/* ]]&gt; */&lt;/script&gt;\nFormat settings, CABAC                   : Yes\nFormat settings, ReFrames                : 4 frames\nCodec ID                                 : V_MPEG4/ISO/AVC\nDuration                                 : 1h 39mn\nBit rate                                 : 10.7 Mbps\nWidth                                    : 1 920 pixels\nHeight                                   : 1 080 pixels\nDisplay aspect ratio                     : 16:9\nFrame rate mode                          : Constant\nFrame rate                               : 23.976 fps\nColor space                              : YUV\nChroma subsampling                       : 4:2:0\nBit depth                                : 8 bits\nScan type                                : Progressive\nBits/(Pixel*Frame)                       : 0.214\nStream size                              : 7.25 GiB (91%)\nWriting library                          : x264 core 146 r2538 121396c\nEncoding settings                        : cabac=1 / ref=4 / deblock=1:-3:-3 / analyse=0x3:0x113 / me=umh / subme=8 / psy=1 / psy_rd=1.00:0.00 / mixed_ref=1 / me_range=16 / chroma_me=1 / trellis=1 / 8x8dct=1 / cqm=0 / deadzone=21,11 / fast_pskip=1 / chroma_qp_offset=-2 / threads=18 / lookahead_threads=3 / sliced_threads=0 / nr=0 / decimate=1 / interlaced=0 / bluray_compat=0 / constrained_intra=0 / bframes=3 / b_pyramid=2 / b_adapt=2 / b_bias=0 / direct=3 / weightb=1 / open_gop=0 / weightp=2 / keyint=240 / keyint_min=24 / scenecut=40 / intra_refresh=0 / rc_lookahead=50 / rc=2pass / mbtree=1 / bitrate=10662 / ratetol=1.0 / qcomp=0.60 / qpmin=0 / qpmax=69 / qpstep=4 / cplxblur=20.0 / qblur=0.5 / ip_ratio=1.40 / aq=1:1.00\nLanguage                                 : English\nDefault                                  : Yes\nForced                                   : No\n\nAudio\nID                                       : 2\nFormat                                   : DTS\nFormat/Info                              : Digital Theater Systems\nMode                                     : 16\nFormat settings, Endianness              : Big\nCodec ID                                 : A_DTS\nDuration                                 : 1h 39mn\nBit rate mode                            : Constant\nBit rate                                 : 768 Kbps\nChannel(s)                               : 1 channel\nChannel positions                        : Front: C\nSampling rate                            : 48.0 KHz\nBit depth                                : 24 bits\nCompression mode                         : Lossy\nStream size                              : 546 MiB (7%)\nLanguage                                 : English\nDefault                                  : Yes\nForced                                   : No\n\nText #1\nID                                       : 3\nFormat                                   : UTF-8\nCodec ID                                 : S_TEXT/UTF8\nCodec ID/Info                            : UTF-8 Plain Text\nTitle                                    : SDH\nLanguage                                 : English\nDefault                                  : No\nForced                                   : No\n\nText #2\nID                                       : 4\nFormat                                   : UTF-8\nCodec ID                                 : S_TEXT/UTF8\nCodec ID/Info                            : UTF-8 Plain Text\nLanguage                                 : English\nDefault                                  : No\nForced                                   : No\n\nMenu\n00:00:00.000                             : en:00:00:00.000\n00:03:18.407                             : en:00:03:18.407\n00:07:27.739                             : en:00:07:27.739\n00:10:14.364                             : en:00:10:14.364\n00:14:42.590                             : en:00:14:42.590\n00:17:57.910                             : en:00:17:57.910\n00:21:37.004                             : en:00:21:37.004\n00:24:25.339                             : en:00:24:25.339\n00:28:26.330                             : en:00:28:26.330\n00:36:29.229                             : en:00:36:29.229\n00:38:59.295                             : en:00:38:59.295\n00:41:25.024                             : en:00:41:25.024\n00:43:29.273                             : en:00:43:29.273\n00:46:19.485                             : en:00:46:19.485\n00:48:49.760                             : en:00:48:49.760\n00:52:53.253                             : en:00:52:53.253\n00:54:50.120                             : en:00:54:50.120\n00:59:37.949                             : en:00:59:37.949\n01:01:59.507                             : en:01:01:59.507\n01:06:51.466                             : en:01:06:51.466\n01:10:12.208                             : en:01:10:12.208\n01:12:16.249                             : en:01:12:16.249\n01:14:21.082                             : en:01:14:21.082\n01:16:47.353                             : en:01:16:47.353\n01:21:10.949                             : en:01:21:10.949\n01:25:58.570                             : en:01:25:58.570\n01:28:23.256                             : en:01:28:23.256\n01:31:45.458                             : en:01:31:45.458\n01:35:06.326                             : en:01:35:06.326\n01:36:46.676                             : en:01:36:46.676","torrent":{"xt":"urn:btih:c1e74f0572e75ab6f29490c12b22b4ec32e78b44","amp;dn":"Hooper.1978.1080p.BluRay.x264-PSYCHD%5Brarbg%5D","amp;tr":["udp%3A%2F%2Ftracker.openbittorrent.com%3A80","udp%3A%2F%2Fopen.demonii.com%3A1337","udp%3A%2F%2Ftracker.coppersurfer.tk%3A6969","udp%3A%2F%2Fexodus.desync.com%3A6969"],"infoHash":"c1e74f0572e75ab6f29490c12b22b4ec32e78b44","infoHashBuffer":{"type":"Buffer","data":[193,231,79,5,114,231,90,182,242,148,144,193,43,34,180,236,50,231,139,68]},"announce":[],"urlList":[]}}